# xmcd
#
# Track frame offsets:
#	150
#	11217
#	22989
#	35913
#	46268
#	56121
#	67360
#	79432
#	91083
#	100736
#	111519
#	122712
#	135693
#	149090
#	167549
#	190857
#	204067
#	222450
#	250059
#	268843
#
# Disc length: 3922 seconds
#
# Revision: 1
# Processed by: cddbd v1.5.2PL0 Copyright (c) Steve Scherf et al.
# Submitted via: audiograbber 1.83.01
#
DISCID=320f5014
DTITLE=Various Artist - RCA Victor, A Northern Soul Legacy
DYEAR=2011
DGENRE=Soul
TTITLE0=The Dynamics - I Need Your Love
TTITLE1=The Celestrals - Chain Reaction
TTITLE2=Herb Ward - Honest To Goodness
TTITLE3=Lorraine Chandler - She Don't Want You
TTITLE4=Dean Courtney - I'll Always Need You
TTITLE5=Rose Valentine - I've Gotta Know Right Now
TTITLE6=Roy Hamilton - You Shook Me Up
TTITLE7=The Cavaliers - Ooh It Hurts Me
TTITLE8=The Metros - I'll Never Forget You
TTITLE9=Sharon Scott - (Putting My Heart Under) Lock And Key
TTITLE10=Kenny Carter - What's That On Your Finger
TTITLE11=Willie Hutch - Lucky To Be Loved By You
TTITLE12=Garland Green - Ask Me For What You Want
TTITLE13=James Walsh Gypsy Band - Cuz It's You, Girl
TTITLE14=Bill Harris - Am I Cold Am I Hot
TTITLE15=Charles Drain - Is This Really Love
TTITLE16=The Brothers - Are You Ready For This
TTITLE17=Grey and Hanks - Gotta Put Something In
TTITLE18=The Nite-Liters - K-Jee
TTITLE19=The Trumains - Ripe For The Pickin'
EXTD=
EXTT0=
EXTT1=
EXTT2=
EXTT3=
EXTT4=
EXTT5=
EXTT6=
EXTT7=
EXTT8=
EXTT9=
EXTT10=
EXTT11=
EXTT12=
EXTT13=
EXTT14=
EXTT15=
EXTT16=
EXTT17=
EXTT18=
EXTT19=
PLAYORDER=
